<?xml version="1.0" encoding="utf-8"?>
<!-- Generator: Adobe Illustrator 24.0.2, SVG Export Plug-In . SVG Version: 6.00 Build 0)  -->
<svg version="1.1" id="Capa_1" xmlns="http://www.w3.org/2000/svg" xmlns:xlink="http://www.w3.org/1999/xlink" x="0px" y="0px"
	 viewBox="0 0 1440 167" style="enable-background:new 0 0 1440 167;" xml:space="preserve">
<style type="text/css">
	.st0{fill:#FFFFFF;}
</style>
<path class="st0" d="M0,135l48-16c48-16,144-48,240-74.7C384,18,480-4,576,12.3C672,28,768,82,864,97.7c96,16.3,192-5.7,288,0
	c96,5.3,192,37.3,240,53.3l48,16l0,0h-48c-48,0-144,0-240,0s-192,0-288,0s-192,0-288,0s-192,0-288,0s-192,0-240,0H0V135z"/>
</svg>
